<svg id="svg3070" xmlns="http://www.w3.org/2000/svg" viewBox="0 0 21.04 21.17"><defs><style>.cls-1{fill:#0c65c3;}.cls-2{fill:#fff;fill-rule:evenodd;}</style></defs><g id="layer1"><g id="g3019"><path id="path14" class="cls-1" d="M0,1.52A1.54,1.54,0,0,1,1.55,0H19.49A1.54,1.54,0,0,1,21,1.52V19.66a1.54,1.54,0,0,1-1.55,1.51H1.55A1.54,1.54,0,0,1,0,19.66Z"/><path id="path28" class="cls-2" d="M6.38,17.72V8.16H3.2v9.56ZM4.79,6.86a1.66,1.66,0,1,0,0-3.31,1.66,1.66,0,1,0,0,3.31Z"/><path id="path30" class="cls-2" d="M8.14,17.72h3.17V12.39a2,2,0,0,1,.11-.78,1.74,1.74,0,0,1,1.63-1.16c1.15,0,1.61.87,1.61,2.16v5.11h3.18V12.24c0-2.93-1.57-4.3-3.66-4.3a3.17,3.17,0,0,0-2.89,1.61h0V8.16H8.14c0,.9,0,9.56,0,9.56Z"/></g></g></svg>