<svg id="svg3070" xmlns="http://www.w3.org/2000/svg" viewBox="0 0 20 20.13"><defs><style>.cls-1{fill:#fff;}</style></defs><g id="layer1"><path class="cls-1" d="M18.52,0h-17A1.46,1.46,0,0,0,0,1.44V18.69a1.46,1.46,0,0,0,1.48,1.44h17A1.46,1.46,0,0,0,20,18.69V1.44A1.46,1.46,0,0,0,18.52,0ZM6.06,16.85H3V7.76h3ZM4.55,6.52h0a1.57,1.57,0,1,1,0-3.14,1.58,1.58,0,1,1,0,3.14ZM17,16.85h-3V12c0-1.23-.43-2.06-1.53-2.06A1.65,1.65,0,0,0,10.85,11a2,2,0,0,0-.1.73v5.08h-3s0-8.24,0-9.09h3V9.05a3,3,0,0,1,2.72-1.5c2,0,3.48,1.3,3.48,4.09Z"/></g></svg>